<?xml version="1.0" encoding="UTF-8" standalone="no"?>
<!-- Created with Inkscape (http://www.inkscape.org/) -->

<svg
   width="123.61015mm"
   height="121.65748mm"
   viewBox="0 0 123.61015 121.65748"
   version="1.1"
   id="svg1"
   xml:space="preserve"
   inkscape:version="1.4.2 (ebf0e940d0, 2025-05-08)"
   sodipodi:docname="icon.svg"
   inkscape:export-filename="icon.png"
   inkscape:export-xdpi="61.927616"
   inkscape:export-ydpi="61.927616"
   xmlns:inkscape="http://www.inkscape.org/namespaces/inkscape"
   xmlns:sodipodi="http://sodipodi.sourceforge.net/DTD/sodipodi-0.dtd"
   xmlns="http://www.w3.org/2000/svg"
   xmlns:svg="http://www.w3.org/2000/svg"><sodipodi:namedview
     id="namedview1"
     pagecolor="#ffffff"
     bordercolor="#000000"
     borderopacity="0.25"
     inkscape:showpageshadow="2"
     inkscape:pageopacity="0.0"
     inkscape:pagecheckerboard="0"
     inkscape:deskcolor="#d1d1d1"
     inkscape:document-units="mm"
     inkscape:zoom="0.5683642"
     inkscape:cx="307.02145"
     inkscape:cy="453.93429"
     inkscape:window-width="1536"
     inkscape:window-height="891"
     inkscape:window-x="0"
     inkscape:window-y="0"
     inkscape:window-maximized="1"
     inkscape:current-layer="layer1" /><defs
     id="defs1"><rect
       x="-5.2783057"
       y="633.39668"
       width="538.38718"
       height="174.18409"
       id="rect1" /></defs><g
     inkscape:label="Layer 1"
     inkscape:groupmode="layer"
     id="layer1"
     transform="translate(-54.466082,-28.855386)"><path
       id="path85"
       style="fill:#e6e6e6;stroke-width:0.507185"
       d="m 116.02148,28.859375 c -1.62448,0.189746 -2.4897,1.776067 -3.83827,2.508349 -5.90267,4.138381 -13.70976,5.265282 -20.707515,3.762305 -3.724494,-0.822626 -7.157003,-2.625675 -10.205533,-4.884717 -0.872482,-0.63577 -1.915125,-1.263932 -3.036035,-0.924109 -1.864645,0.483114 -3.036481,2.161912 -4.499255,3.287754 -6.22732,5.505378 -12.527305,10.939575 -18.639169,16.574637 -1.294822,1.561503 -0.454357,4.075427 1.265625,4.939453 5.347107,4.341436 8.920542,10.767746 9.697283,17.571592 0.424811,4.074811 0.07876,8.153447 -1.265471,12.045748 -0.807626,2.497935 -2.226241,4.716717 -3.602096,6.928251 -1.820253,2.944525 -3.369469,6.094819 -4.12459,9.491872 -2.10415,8.45393 -0.515192,17.6819 4.076623,25.06021 4.379396,7.24716 11.629466,12.8084 19.923471,14.71681 6.429218,1.79944 13.141413,1.98484 19.742332,2.66623 5.2596,0.76948 10.15928,3.50169 13.72432,7.41968 1.57769,1.09482 3.71965,0.20344 4.77711,-1.20218 4.21738,-4.19102 10.1358,-6.44379 16.04189,-6.57505 7.8909,-0.54536 15.98509,-1.4225 23.19906,-4.90044 11.89886,-6.05136 19.33695,-19.84314 17.75364,-33.11278 -0.55815,-5.362768 -2.64249,-10.485659 -5.63637,-14.942986 -1.74244,-2.853786 -3.22282,-5.944136 -3.74107,-9.314706 -1.06031,-5.468194 -0.46201,-11.387477 1.97458,-16.490353 1.92035,-4.009229 4.86573,-7.639148 8.47491,-10.311117 1.40376,-1.650253 0.53973,-4.293337 -1.22461,-5.304687 -6.943,-6.039878 -13.78563,-12.197285 -20.79492,-18.154297 -1.61279,-0.974003 -3.62636,-0.131988 -4.85366,1.081189 -3.56397,2.706612 -7.89953,4.369059 -12.3987,4.841097 -5.36671,0.616114 -11.01775,-0.433505 -15.81225,-3.039696 -1.84598,-0.924483 -3.40353,-2.295103 -5.10531,-3.435325 -0.35633,-0.187027 -0.7595,-0.333001 -1.16602,-0.302734 z" /><path
       style="fill:#28170b;stroke-width:0.507185"
       d="m 115.44414,146.46196 c -2.10893,-2.15562 -5.36243,-4.26323 -8.38284,-5.4304 -3.53452,-1.36583 -5.72072,-1.7655 -11.339275,-2.07296 -6.086264,-0.33305 -12.473411,-1.46085 -16.807713,-2.96778 -8.958491,-3.11466 -15.911678,-10.86376 -18.6308,-20.76342 -2.071581,-7.54213 -0.785271,-16.082677 3.395236,-22.542897 3.559714,-5.50091 4.781654,-8.60703 5.551017,-14.11046 0.212722,-1.52165 0.216554,-5.64374 0.0068,-7.3135 -0.511558,-4.07225 -1.997421,-8.38428 -4.046066,-11.74185 -1.779614,-2.91665 -4.408872,-5.98028 -6.52028,-7.59749 -0.545487,-0.41781 -0.991673,-0.79657 -0.991524,-0.8417 2.86e-4,-0.0865 1.052426,-1.03117 5.771162,-5.18136 1.594419,-1.40231 3.611369,-3.18372 4.482112,-3.95868 0.870742,-0.77496 1.866058,-1.65057 2.211811,-1.94579 1.101784,-0.94077 4.985591,-4.36365 6.80823,-6.00024 0.968798,-0.8699 1.823595,-1.58165 1.899548,-1.58165 0.07595,0 0.394217,0.21399 0.707254,0.47552 0.992431,0.82916 3.093722,2.16347 4.689747,2.97798 2.490695,1.27109 5.258364,2.18316 8.319941,2.7418 2.363103,0.43118 6.831924,0.43258 9.60309,0.003 5.14805,-0.79805 9.84739,-2.83143 13.29057,-5.75077 l 0.68478,-0.5806 1.12681,0.84959 c 5.02309,3.78728 11.25661,5.85893 17.62933,5.85893 6.81822,0 12.98861,-2.04564 17.78751,-5.89701 0.47112,-0.37811 0.92961,-0.67034 1.01885,-0.6494 0.0892,0.0209 1.14868,0.91932 2.3543,1.9964 2.03396,1.81711 9.62357,8.49676 12.85333,11.31228 0.7711,0.6722 2.25946,1.98288 3.30745,2.9126 1.048,0.92973 2.10792,1.85219 2.35539,2.0499 0.40692,0.3251 0.42718,0.37279 0.21191,0.49867 -0.55847,0.32657 -1.99785,1.59757 -3.16382,2.79372 -3.58138,3.67407 -6.38988,8.75301 -7.61281,13.76715 -1.04102,4.26828 -1.0155,9.68274 0.0669,14.19298 0.79645,3.31873 1.87376,5.7824 4.03434,9.22609 2.55439,4.07137 3.50539,6.1838 4.37252,9.712527 0.85842,3.49332 1.07919,6.99001 0.65777,10.41791 -0.83059,6.75605 -4.208,13.48615 -9.17559,18.28398 -3.57375,3.45163 -7.37633,5.61994 -12.2777,7.00102 -4.55642,1.28388 -9.92066,2.08858 -16.58588,2.48809 -2.79578,0.16758 -4.10295,0.326 -5.63609,0.68308 -3.13295,0.72969 -6.75546,2.34206 -9.2531,4.11854 -0.69775,0.49628 -1.85248,1.46091 -2.56607,2.14362 -0.71358,0.6827 -1.32212,1.24127 -1.35231,1.24127 -0.0302,0 -0.41532,-0.3684 -0.85585,-0.81868 z"
       id="path2" /><path
       style="fill:#e6e6e6;stroke-width:0.507185"
       d="m 162.05858,64.852863 c 0.73964,-2.31635 1.58606,-4.24956 2.74675,-6.27351 1.5049,-2.62417 2.71757,-4.23457 4.76162,-6.32332 1.25651,-1.28399 1.26181,-1.29224 0.96437,-1.50058 -0.1645,-0.11522 -0.91045,-0.74783 -1.65767,-1.40581 -0.74722,-0.65798 -2.92864,-2.57964 -4.84759,-4.27035 -1.91896,-1.69071 -4.21365,-3.70196 -5.09932,-4.46944 -0.88567,-0.76748 -2.41556,-2.12589 -3.39976,-3.01869 -0.98419,-0.89279 -1.83293,-1.63947 -1.88608,-1.65927 -0.0531,-0.0198 -0.69718,0.36561 -1.43118,0.85648 -3.10406,2.07588 -7.38989,3.72918 -11.39898,4.39729 -3.30596,0.55093 -7.2758,0.66283 -9.94563,0.28035 -4.86388,-0.69681 -9.72966,-2.45066 -13.31343,-4.79878 l -1.31482,-0.86148 -1.19942,0.79522 c -1.67486,1.11045 -4.92276,2.68276 -6.8404,3.31144 -3.40662,1.11683 -6.3172,1.62449 -9.874222,1.72223 -5.223262,0.14354 -9.408445,-0.6916 -14.198819,-2.83333 -1.640911,-0.73364 -3.873881,-1.99804 -4.584315,-2.59583 -0.19915,-0.16757 -0.436902,-0.30468 -0.528335,-0.30468 -0.09143,0 -0.777164,0.56246 -1.523844,1.24991 -0.74668,0.68745 -2.776687,2.48977 -4.511126,4.00516 -1.734439,1.51538 -3.697006,3.23481 -4.361259,3.82095 -3.552255,3.13451 -5.830563,5.12815 -6.299253,5.51217 l -0.52587,0.43087 1.132423,1.17944 c 3.545615,3.69283 6.175482,8.12621 7.66486,12.9213 0.149009,0.47973 0.298179,0.91754 0.331488,0.97289 0.03331,0.0554 20.464214,0.10065 45.402012,0.10065 h 45.34145 z"
       id="path12" /><path
       style="fill:#e6e6e6;stroke-width:0.507185"
       d="m 117.84012,142.33955 c 3.41611,-2.6483 7.30627,-4.42498 11.52302,-5.26268 1.94214,-0.38582 3.32246,-0.52293 8.09278,-0.80383 5.1145,-0.30117 11.90873,-1.58074 15.63344,-2.94427 5.31686,-1.94639 10.1588,-5.96338 13.32227,-11.05247 1.63073,-2.62337 3.1488,-6.36959 3.70688,-9.14767 1.0107,-5.03115 0.54114,-10.37193 -1.3221,-15.037437 -0.50708,-1.26972 -1.76316,-3.55834 -2.82844,-5.15355 -1.77272,-2.65454 -3.05734,-5.35746 -4.00965,-8.4366 -0.61157,-1.97742 -0.72259,-2.45833 -1.08938,-4.71927 -0.5101,-3.1443 -0.47925,-6.93059 0.0852,-10.46066 l 0.0868,-0.54313 h -44.70328 c -35.675435,0 -44.702428,0.0339 -44.699035,0.16774 0.0023,0.0923 0.09252,0.8018 0.200413,1.57676 0.298818,2.1464 0.389791,5.08186 0.214178,6.91092 -0.588246,6.12678 -2.13118,10.57518 -5.44838,15.70813 -3.94237,6.10032 -5.240614,11.695057 -4.279852,18.443887 1.406734,9.88155 8.400798,18.65315 17.428042,21.85739 4.054496,1.43915 10.431913,2.52517 17.042459,2.9022 1.992761,0.11365 4.166685,0.30005 4.830935,0.41422 3.80155,0.6534 7.02804,1.77742 10.00009,3.48375 1.46753,0.84254 4.07104,2.65176 4.41859,3.07053 0.0957,0.11536 0.19522,0.20975 0.22107,0.20975 0.0259,0 0.73409,-0.53267 1.57387,-1.18371 z"
       id="path3" /><path
       id="text1"
       style="font-size:106.667px;font-family:Monospace;-inkscape-font-specification:'Monospace, Normal';text-align:start;writing-mode:lr-tb;direction:ltr;text-anchor:start;white-space:pre;shape-inside:url(#rect1);fill:#800080;stroke-width:0.337718"
       d="m 86.379024,89.940755 c -0.173102,1.220153 -0.166699,2.498711 -0.02868,3.726591 0.03805,0.267658 0.07611,0.535315 0.11416,0.802987 1.043198,0 2.086394,0 3.1296,0 0.234536,-1.413064 0.283148,-2.90574 0.111511,-4.341935 -0.03863,-0.26274 -0.07716,-0.525497 -0.115758,-0.788236 -1.040197,0 -2.080385,0 -3.120574,0 -0.03009,0.200187 -0.06017,0.400389 -0.09027,0.600593 z m 15.079276,0 c -0.18082,1.238233 -0.15587,2.537498 -0.0303,3.781484 -0.14281,1.179142 -0.12146,2.402755 0,3.579889 -0.11412,0.913584 -0.11691,1.852958 -0.0685,2.777712 -0.19159,0.0402 -0.34298,0.0226 -0.25766,-0.334737 0.0477,-1.090664 -0.0152,-2.189888 -0.2027,-3.245142 -1.330977,0 -2.661969,0 -3.992961,0 -0.208398,1.163104 -0.257863,2.380788 -0.186375,3.579879 -0.421061,0 -0.842131,0 -1.263192,0 -0.208688,1.16304 -0.258612,2.38074 -0.186909,3.5799 -0.227786,0 -0.455581,0 -0.683367,0 -0.235971,1.3295 -0.274298,2.73347 -0.14336,4.09448 0.03797,0.3478 0.093,0.69039 0.139113,1.0357 0.228676,0 0.457344,0 0.68602,0 -0.07116,1.19921 -0.01322,2.41396 0.184256,3.57991 0.421952,0 0.843894,0 1.265855,0 -0.07097,1.19912 -0.0135,2.41391 0.183712,3.5799 1.333829,0 2.667641,0 4.001468,0 0.19742,-1.16605 0.25498,-2.38066 0.18425,-3.5799 0.1789,-0.0322 0.32507,-0.026 0.25596,0.29845 -0.0479,1.10246 0.0172,2.21272 0.20014,3.28145 1.0432,0 2.0864,0 3.12959,0 0.23525,-1.41864 0.28418,-2.918 0.10885,-4.35915 0.14666,-1.19182 0.1287,-2.42987 0.006,-3.62005 0.14007,-1.17965 0.12259,-2.40312 0,-3.57989 0.14016,-1.17994 0.12246,-2.40366 0,-3.58073 0.14025,-1.179627 0.12239,-2.403098 0,-3.579892 0.14025,-1.179614 0.12241,-2.403081 0,-3.579899 0.16135,-1.41599 0.12969,-2.889132 -0.11386,-4.278898 -0.14854,-0.07225 -0.36648,-0.01004 -0.54191,-0.03111 -0.86107,0 -1.72214,0 -2.58322,0 -0.0301,0.200204 -0.0602,0.400407 -0.0903,0.600611 z m 8.11868,0.0033 c -0.17131,1.218414 -0.16595,2.494245 -0.0281,3.720019 0.0374,0.268777 0.075,0.537521 0.11257,0.806282 1.0432,0 2.08639,0 3.12959,0 0.23811,-1.407445 0.28355,-2.89584 0.11576,-4.328005 -0.0402,-0.267389 -0.0804,-0.534794 -0.12054,-0.802168 -1.04019,0 -2.08037,0 -3.12055,0 -0.0295,0.201291 -0.0592,0.402581 -0.0887,0.603872 z m 31.31875,0 c -0.17932,1.237531 -0.15671,2.535139 -0.0287,3.778206 -0.14449,1.178674 -0.12323,2.402693 0,3.579887 -0.14448,1.178681 -0.12324,2.402685 0,3.579892 -0.14455,1.17896 -0.12313,2.40324 0,3.58072 -0.14507,1.17858 -0.12227,2.40304 -5.4e-4,3.57991 -0.14381,1.17895 -0.12208,2.40298 0,3.57989 -0.16969,1.43183 -0.1208,2.91904 0.11363,4.32719 1.04373,0 2.08747,0 3.13119,0 0.22955,-1.37909 0.28075,-2.83344 0.12382,-4.23792 -0.0238,-0.34895 0.072,-0.70079 0.0667,-1.05636 0.0313,-0.62049 0.0277,-1.24548 -0.007,-1.86552 0.18673,0 0.37346,0 0.56018,0 -0.0712,1.19919 -0.0133,2.41394 0.18425,3.57991 0.32531,0 0.65062,0 0.97593,0 -0.0718,1.19916 -0.0136,2.41388 0.18372,3.57989 1.62374,0 3.24748,0 4.87122,0 0.23432,-1.40814 0.28341,-2.89538 0.11362,-4.32719 -0.0396,-0.26754 -0.0786,-0.53534 -0.11788,-0.80299 -0.90425,0 -1.80851,0 -2.71278,0 0.0715,-1.19923 0.0214,-2.41668 -0.1869,-3.57989 -0.32442,0 -0.64885,0 -0.97328,0 0.0386,-0.67472 0.0394,-1.35482 0.002,-2.02961 0.32532,0 0.65063,0 0.97595,0 0.19743,-1.16604 0.25497,-2.38068 0.18425,-3.57993 0.71187,0 1.42374,0 2.1356,0 0.22761,-1.36594 0.2791,-2.805221 0.12875,-4.197465 -0.0373,-0.313097 -0.0895,-0.621514 -0.13299,-0.932684 -1.42764,0 -2.85526,0 -4.28289,0 -0.20863,1.163074 -0.258,2.380728 -0.1869,3.579879 -0.32426,0 -0.64851,0 -0.97276,0 -0.20868,1.16304 -0.25861,2.38074 -0.18691,3.5799 -0.18778,0 -0.37557,0 -0.56336,0 0.0559,-0.94898 0.0325,-1.91447 -0.0685,-2.84983 0.14086,-1.179457 0.12298,-2.403248 0,-3.579892 0.14086,-1.179474 0.12299,-2.40324 0,-3.579907 0.1599,-1.401824 0.13193,-2.861134 -0.10785,-4.237988 -0.0837,-0.162403 -0.321,-0.02843 -0.46636,-0.07209 -0.88896,0 -1.77793,0 -2.66688,0 -0.0295,0.201291 -0.0592,0.402581 -0.0887,0.603888 z m 13.91909,0 c -0.14653,0.973219 -0.14791,1.984605 -0.0982,2.976022 -0.42017,0 -0.84036,0 -1.26053,0 -0.24458,1.354274 -0.27933,2.789901 -0.13653,4.175451 0.0443,0.345587 -0.0634,0.692377 -0.059,1.044084 -0.0632,1.170274 -0.005,2.354388 0.19069,3.490518 0.42141,0 0.84284,0 1.26426,0 -0.0384,0.67476 -0.0369,1.3549 9.3e-4,2.02963 -0.42035,0 -0.84072,0 -1.26107,0 -0.2436,1.35518 -0.27896,2.79092 -0.13596,4.1771 0.0443,0.34506 -0.0633,0.69138 -0.059,1.04244 -0.0632,1.17028 -0.005,2.35442 0.19068,3.49056 0.42142,0 0.84285,0 1.26427,0 -0.0718,1.19915 -0.0136,2.41388 0.18372,3.57989 1.81647,0 3.63296,0 5.44944,0 0.20084,-1.16502 0.25626,-2.38074 0.18584,-3.57989 0.42195,0 0.8439,0 1.26585,0 0.23433,-1.40816 0.28342,-2.8954 0.11364,-4.32719 0.14851,-1.40886 0.1439,-2.88176 -0.10121,-4.26922 -0.0434,-0.24085 -0.30725,-0.0557 -0.44528,-0.11358 -0.2782,0 -0.5564,0 -0.83459,0 0.0386,-0.67473 0.0395,-1.35482 0.002,-2.02962 0.42196,0 0.8439,0 1.26587,0 0.23361,-1.40388 0.28304,-2.886261 0.11522,-4.314052 0.0832,-0.839647 0.12109,-1.704566 0.0829,-2.558499 -0.0159,-0.623792 -0.11045,-1.232313 -0.20238,-1.837522 -0.42106,0 -0.84213,0 -1.26319,0 0.0707,-1.199095 0.0241,-2.418195 -0.18903,-3.579893 -1.81347,0 -3.62695,0 -5.44042,0 -0.0295,0.201308 -0.0592,0.402599 -0.0887,0.603888 z m 3.67012,4.526301 c -0.0534,0.943079 -0.0306,1.901815 0.0712,2.831792 -0.1165,0.913094 -0.11673,1.853038 -0.0696,2.777712 -0.57434,0 -1.14868,0 -1.72303,0 0.0551,-0.949024 0.0323,-1.914398 -0.0685,-2.849812 0.11159,-0.907957 0.11671,-1.840832 0.0696,-2.759692 0.57345,0 1.14692,0 1.72037,0 z m -87.185198,2.630302 c -0.180807,1.238214 -0.155879,2.537465 -0.03026,3.781442 -0.142843,1.17941 -0.121384,2.40329 0,3.58072 -0.142969,1.17914 -0.121289,2.40275 0,3.57992 -0.142779,1.17917 -0.121419,2.4027 0,3.57989 -0.167599,1.43195 -0.122552,2.92001 0.115753,4.32718 1.043198,0 2.086395,0 3.129592,0 0.235245,-1.41863 0.284179,-2.91799 0.108851,-4.35914 0.146654,-1.19182 0.128703,-2.42987 0.0053,-3.62005 0.140072,-1.17967 0.1226,-2.40313 0,-3.57989 0.110813,-0.90842 0.117094,-1.84135 0.06957,-2.76053 0.177329,-0.031 0.326403,-0.0282 0.256326,0.29597 -0.0353,0.84719 -0.0042,1.70497 0.08456,2.5383 -0.143738,1.17897 -0.121509,2.40279 0,3.57989 -0.143545,1.17906 -0.121642,2.40275 0,3.57991 -0.16704,1.41832 -0.122842,2.89194 0.108333,4.28761 0.124776,0.088 0.334695,0.0133 0.492523,0.0378 0.688044,0 1.376086,0 2.064129,0 0.23433,-1.40813 0.283419,-2.89539 0.11363,-4.32718 0.128316,-1.19647 0.136089,-2.44253 -0.001,-3.6389 0.14259,-1.18316 0.125543,-2.41162 0.0016,-3.5922 0.111556,-0.90848 0.117593,-1.84188 0.07009,-2.76133 0.178909,-0.0323 0.325072,-0.026 0.25598,0.29845 -0.03761,0.85023 7.47e-4,1.71138 0.08332,2.54729 -0.142039,1.17488 -0.120052,2.39424 0.0016,3.56679 -0.143813,1.17894 -0.122085,2.40298 0,3.5799 -0.169698,1.43181 -0.120801,2.91903 0.113628,4.32718 1.043729,0 2.087457,0 3.131185,0 0.229548,-1.3791 0.280751,-2.83343 0.123819,-4.23792 -0.02377,-0.34894 0.072,-0.70078 0.06669,-1.05636 0.04712,-0.89498 0.01763,-1.80382 -0.07635,-2.68491 0.140679,-1.17948 0.123176,-2.40327 0,-3.57989 0.159811,-1.40215 0.132012,-2.86172 -0.107836,-4.23882 -0.0838,-0.162397 -0.32101,-0.0284 -0.466364,-0.072 -0.172497,0 -0.344995,0 -0.517492,0 0.07079,-1.199091 0.02389,-2.418135 -0.189029,-3.579879 -1.136826,0 -2.273654,0 -3.410481,0 -0.03459,0.463897 -0.03329,-0.18786 -0.257206,0 -0.976753,0 -1.953507,0 -2.930261,0 -0.03762,0.473367 -0.03241,-0.18483 -0.259863,0 -0.686661,0 -1.373324,0 -2.059987,0 -0.03009,0.20021 -0.06017,0.400407 -0.09027,0.600607 z m 13.338731,0.004 c -0.171935,1.218284 -0.166566,2.494295 -0.02814,3.719992 0.03746,0.26876 0.07504,0.53753 0.112568,0.80627 0.51859,0 1.037179,0 1.555769,0 -0.05467,0.94333 -0.02911,1.90244 0.07009,2.83262 -0.14297,1.17914 -0.121289,2.40275 0,3.57992 -0.113974,0.91338 -0.117031,1.85238 -0.0685,2.77689 -0.711158,0 -1.422316,0 -2.133475,0 -0.243385,1.38329 -0.280481,2.84831 -0.124293,4.25968 0.03703,0.29109 0.08055,0.58019 0.120046,0.87051 2.590471,0 5.180942,0 7.77141,0 0.234199,-1.40769 0.282979,-2.89424 0.11363,-4.32554 -0.0391,-0.26828 -0.07857,-0.53642 -0.117868,-0.80465 -0.711156,0 -1.422321,0 -2.133487,0 0.05672,-0.94872 0.03197,-1.9137 -0.06797,-2.84901 0.14006,-1.17966 0.122594,-2.40313 0,-3.57989 0.140154,-1.17994 0.122462,-2.40366 0,-3.58073 0.161352,-1.415984 0.129682,-2.889118 -0.113846,-4.278889 -0.148554,-0.0722 -0.366494,-0.01 -0.541921,-0.0309 -1.441785,0 -2.88357,0 -4.325357,0 -0.02956,0.20131 -0.05911,0.402597 -0.08867,0.603877 z m 23.198487,0 c -0.17221,1.232054 -0.16727,2.522895 -0.0224,3.761012 0.0355,0.2551 0.0713,0.51016 0.10684,0.76525 0.51877,0 1.03754,0 1.5563,0 -0.0545,0.9439 -0.0294,1.90352 0.0701,2.83428 -0.14347,1.17897 -0.12116,2.40278 0,3.57989 -0.11501,0.91269 -0.116,1.85126 -0.069,2.77526 -0.71096,0 -1.42196,0 -2.13294,0 -0.23749,1.34299 -0.27702,2.76222 -0.1386,4.13579 0.0373,0.33373 0.0901,0.66277 0.13435,0.9944 2.58977,0 5.17954,0 7.7693,0 0.23818,-1.40718 0.28347,-2.89525 0.11575,-4.32719 -0.0404,-0.26752 -0.08,-0.53534 -0.12001,-0.803 -0.71045,0 -1.42088,0 -2.13134,0 0.0566,-0.94841 0.0322,-1.91325 -0.068,-2.84818 0.13986,-1.17967 0.12281,-2.40319 0,-3.5799 0.13986,-1.17968 0.12281,-2.40322 0,-3.57991 0.16029,-1.417444 0.13215,-2.893468 -0.11678,-4.283139 -0.16864,-0.0664 -0.40077,-0.008 -0.59388,-0.0284 -1.42366,0 -2.84732,0 -4.27098,0 -0.0295,0.20129 -0.0592,0.402577 -0.0887,0.603887 z m 23.19901,0 c -0.14652,0.973194 -0.1479,1.984578 -0.0982,2.975982 -0.32425,0 -0.64851,0 -0.97275,0 -0.24245,1.37069 -0.27955,2.82175 -0.12929,4.22158 0.0381,0.30398 0.0839,0.60556 0.12503,0.90863 0.32532,0 0.65063,0 0.97595,0 -0.0717,1.19914 -0.0136,2.41387 0.18372,3.57989 1.48532,0 2.97065,0 4.45598,0 -0.0379,0.67482 -0.0369,1.35487 0.002,2.02961 -1.67773,0 -3.35543,0 -5.03315,0 -0.23866,1.34395 -0.27581,2.76418 -0.13902,4.13905 0.0387,0.33228 0.0905,0.66058 0.13477,0.99114 2.39701,0 4.79403,0 7.19106,0 0.19772,-1.16593 0.25481,-2.38068 0.18424,-3.57989 0.3246,0 0.64921,0 0.97382,0 0.23817,-1.40719 0.28346,-2.89526 0.11575,-4.32719 -0.0404,-0.26754 -0.08,-0.53538 -0.12001,-0.803 -0.32371,0 -0.64743,0 -0.97115,0 0.0712,-1.19922 0.022,-2.41686 -0.18691,-3.5799 -1.48427,0 -2.96853,0 -4.45279,0 0.0383,-0.67472 0.0391,-1.35484 0.002,-2.02964 1.67842,0 3.35684,0 5.03526,0 0.23363,-1.40388 0.28306,-2.886241 0.11523,-4.314032 -0.0391,-0.27228 -0.0798,-0.544057 -0.11947,-0.816117 -2.39419,0 -4.78838,0 -7.18256,0 -0.0295,0.20129 -0.0591,0.402577 -0.0887,0.603887 z m -11.59924,3.579872 c -0.17193,1.21832 -0.16658,2.49435 -0.0281,3.72002 0.0374,0.26878 0.075,0.53752 0.11257,0.8063 2.20375,0 4.40748,0 6.61123,0 0.23462,-1.41309 0.28308,-2.90577 0.1115,-4.34196 -0.0386,-0.26274 -0.0772,-0.52551 -0.11575,-0.78825 -2.2009,0 -4.40182,0 -6.60272,0 -0.0295,0.20128 -0.0592,0.4026 -0.0887,0.60389 z m -18.94906,0.94639 c -0.0707,1.19923 -0.0133,2.4139 0.18426,3.57993 0.22867,0 0.45734,0 0.68602,0 -0.0379,0.6748 -0.0369,1.35487 0.002,2.02961 -0.22779,0 -0.45558,0 -0.68337,0 -0.20833,1.16322 -0.25831,2.38066 -0.1869,3.57989 -0.767787,0 -1.535609,0 -2.303399,0 0.0718,-1.19912 0.0217,-2.41667 -0.186374,-3.57989 -0.227786,0 -0.455572,0 -0.683358,0 0.03863,-0.67472 0.03947,-1.35481 0.0019,-2.02961 0.228667,0 0.457353,0 0.68603,0 0.197152,-1.16603 0.254712,-2.3808 0.183712,-3.57993 0.76675,0 1.533472,0 2.300209,0 z m 57.99727,3.57993 c -0.0538,0.94329 -0.0296,1.90268 0.0707,2.83261 -0.1154,0.9131 -0.11651,1.85245 -0.069,2.77689 -0.57434,0 -1.14868,0 -1.72303,0 0.0553,-0.94881 0.0322,-1.91379 -0.0685,-2.84901 0.11151,-0.90825 0.11673,-1.84135 0.0696,-2.76049 0.57345,0 1.14692,0 1.72037,0 z" /><path
       style="fill:#000000;stroke-width:0.507185"
       d="m 116.79026,43.124353 c 0.14762,-0.0819 0.36193,-0.21593 0.47625,-0.29786 0.11433,-0.0819 0.0657,-0.0131 -0.10813,0.15298 -0.17379,0.16607 -0.3881,0.3001 -0.47625,0.29785 -0.0881,-0.002 -0.0395,-0.0711 0.10813,-0.15297 z"
       id="path21" /><path
       id="path4"
       style="fill:#1a1a1a;stroke-width:0.507185"
       d="m 116.23167,132.9893 c -0.51271,0 -0.66294,0.0662 -0.99529,0.43821 -0.55641,0.62252 -0.5561,1.49805 5.1e-4,2.05466 1.0345,1.03451 2.88641,-0.0239 2.435,-1.39165 -0.23934,-0.7252 -0.73124,-1.10122 -1.44022,-1.10122 z m 0.55397,0.55035 c 0.10835,0.001 0.19608,0.0481 0.32814,0.14056 0.66734,0.46742 0.59607,1.48737 -0.13022,1.86294 -0.84837,0.43871 -1.60249,0.10723 -1.60249,-0.70435 0,-0.51242 0.32692,-0.91363 0.95291,-1.16944 0.21461,-0.0877 0.3433,-0.13121 0.45166,-0.12971 z" /><path
       style="fill:#000000;stroke-width:0.507185"
       d="m 115.27199,42.946323 c -0.48607,-0.409 -0.62215,-0.8868 -0.42376,-1.48793 0.3415,-1.03473 1.66155,-1.36326 2.42203,-0.60277 0.21574,0.21574 0.38817,0.50257 0.38317,0.63741 -0.008,0.20492 -0.0332,0.19512 -0.156,-0.0597 -0.27853,-0.57795 -1.12257,-0.56172 -1.7653,0.0339 -0.30622,0.28379 -0.3595,0.43227 -0.32502,0.9059 0.0326,0.44745 0.11171,0.60195 0.37671,0.73537 0.22812,0.11484 0.26362,0.16953 0.11094,0.17087 -0.1235,10e-4 -0.40374,-0.14881 -0.62277,-0.3331 z"
       id="path20" /><path
       id="path18"
       style="fill:#000000;stroke-width:0.507185"
       d="m 139.26747,46.606458 v 7.462593 7.462594 h 3.22616 c 3.66366,0 4.6774,-0.141232 6.2637,-0.873332 1.6651,-0.76847 2.80182,-2.204382 3.31607,-4.188892 0.26943,-1.03916 0.27387,-3.443359 0.009,-4.567679 -0.45813,-1.94308 -1.67944,-3.527109 -3.32486,-4.312399 -1.4946,-0.71331 -2.34587,-0.841106 -6.10144,-0.915706 z m 3.08663,2.679423 1.84485,0.05994 c 1.66838,0.05441 1.9263,0.09666 2.69234,0.441834 1.58199,0.71284 2.30632,2.074426 2.30632,4.335136 0,1.74861 -0.29237,2.609631 -1.20096,3.537251 -0.58006,0.5922 -0.90779,0.809509 -1.4826,0.980819 v -5.17e-4 c -0.79597,0.23722 -3.89431,0.441931 -4.0597,0.268201 -0.0553,-0.05815 -0.10025,-2.247033 -0.10025,-4.864303 z" /><path
       style="fill:#000000;stroke-width:0.507185"
       d="m 125.57988,54.082303 v -7.44928 l 5.13286,0.0351 5.13287,0.0352 0.0401,1.00486 c 0.0221,0.55268 0.006,1.14046 -0.0356,1.30619 l -0.0756,0.30133 -3.58764,0.0357 -3.58764,0.0357 v 1.67741 1.6774 l 3.25416,0.0359 3.25418,0.0359 v 1.27244 1.27245 h -3.29162 -3.29161 l 0.0374,1.77805 0.0374,1.77805 3.79094,0.0356 3.79093,0.0356 v 1.27274 1.27274 h -5.3006 -5.30061 z"
       id="path17" /><path
       id="path15"
       style="fill:#000000;stroke-width:0.507185"
       d="m 110.28216,46.63643 v 7.447607 l -5.2e-4,7.447608 h 1.45831 1.45883 l 0.0832,-0.503329 c 0.0457,-0.27678 0.0834,-1.39562 0.0842,-2.48667 l 0.002,-1.983858 1.49294,0.03772 1.49241,0.03824 1.09089,1.90066 c 0.59976,1.04541 1.22803,2.147396 1.3963,2.448946 l 0.30592,0.548287 h 1.73685 1.73684 l -0.38034,-0.637687 c -0.20927,-0.35057 -0.95972,-1.584242 -1.66811,-2.741952 l -1.28829,-2.105298 0.4594,-0.151412 c 0.59939,-0.19782 1.755,-1.243015 2.08101,-1.882055 0.4038,-0.7915 0.57295,-2.164053 0.40359,-3.275253 -0.20462,-1.34253 -0.67398,-2.236469 -1.48931,-2.834969 -1.42857,-1.04868 -2.67683,-1.266589 -7.24556,-1.266589 z m 3.08611,2.683557 h 2.01745 c 2.27308,0 2.65028,0.09593 3.30109,0.837158 0.98716,1.1243 0.58483,3.123119 -0.74466,3.697449 -0.33714,0.14564 -1.09222,0.225601 -2.52749,0.268201 l -2.04639,0.06098 V 51.75188 Z" /><path
       style="fill:#000000;stroke-width:0.507185"
       d="m 95.254901,60.961273 c 0.0014,-0.31368 -0.01369,-3.65004 -0.03355,-7.41414 l -0.0361,-6.84382 1.509667,-0.0379 1.509666,-0.0379 v 3.37039 c 0,1.92244 0.0515,3.35118 0.119873,3.32567 0.06593,-0.0246 0.919302,-0.98073 1.896383,-2.12472 0.97708,-1.14399 2.25721,-2.63856 2.84474,-3.32127 l 1.06823,-1.24128 h 1.74406 1.74405 l -0.36281,0.43613 c -0.47912,0.57593 -2.6994,3.09521 -3.92166,4.44978 -0.53509,0.59301 -0.9729,1.11672 -0.9729,1.16378 0,0.0471 0.52151,0.89416 1.1589,1.88242 0.6374,0.98827 1.62675,2.52149 2.19856,3.40717 1.1917,1.84581 2.14444,3.39696 2.14444,3.49137 0,0.0356 -0.80587,0.0647 -1.79081,0.0647 h -1.79082 l -1.92863,-3.22062 c -1.06074,-1.77134 -1.97141,-3.22063 -2.02371,-3.22063 -0.0523,0 -0.552467,0.51408 -1.11149,1.1424 l -1.016406,1.1424 v 2.07822 2.07823 h -1.476113 -1.476119 z"
       id="path14" /><path
       style="fill:#000000;stroke-width:0.507185"
       d="m 84.584039,61.612933 c -1.714546,-0.33095 -4.36126,-1.56045 -4.36126,-2.02598 0,-0.0947 0.276486,-0.69189 0.614413,-1.32712 l 0.614413,-1.15498 0.559773,0.38393 c 1.968289,1.34998 4.306338,1.92115 6.058305,1.48 0.789293,-0.19875 1.174171,-0.63058 1.192727,-1.33825 0.01264,-0.48195 -0.04925,-0.61316 -0.44502,-0.94357 -0.471501,-0.39363 -1.619293,-0.81756 -3.629484,-1.34054 -2.1546,-0.56055 -3.3754,-1.2805 -3.93021,-2.31781 -0.254719,-0.47624 -0.296857,-0.76456 -0.296857,-2.03114 0,-1.25895 0.04275,-1.55509 0.290563,-2.01289 0.609713,-1.12635 1.914282,-2.0291 3.37279,-2.33394 1.000295,-0.20906 3.02506,-0.18129 4.028432,0.0553 0.723214,0.1705 2.637406,0.99255 3.224424,1.38473 0.144423,0.0965 0.06625,0.36733 -0.388492,1.34608 -0.313111,0.67391 -0.58663,1.22529 -0.607818,1.22529 -0.02119,0 -0.571008,-0.2665 -1.221819,-0.59221 -1.489588,-0.74551 -2.000648,-0.88223 -3.301138,-0.88316 -1.656243,-10e-4 -2.377609,0.4555 -2.377609,1.50523 0,0.91567 0.558776,1.25338 3.188769,1.92721 4.156368,1.0649 5.417801,2.28293 5.228255,5.04834 -0.127104,1.85442 -1.118707,3.07507 -3.017554,3.71458 -1.145516,0.38579 -3.42476,0.49555 -4.795603,0.23095 z"
       id="path13" /></g></svg>
